<svg xmlns="http://www.w3.org/2000/svg" width="357.214" height="655.348" viewBox="0 0 357.214 655.348"><path fill="#989898" d="M59.19 328.183c-.047-.05-.072-.12-.19-.318 99.265-99.236 198.57-198.513 298.21-298.122-9.19-9.19-18.383-18.38-27.57-27.574-.596-.6-1.044-1.343-1.68-2.17L0 327.864c.118.2.143.27.19.318 40.945 40.932 81.896 81.857 122.836 122.793 67.58 67.573 135.15 135.155 202.73 202.73 2.17 2.17 1.728 2.188 3.856.06 9.202-9.2 18.4-18.402 27.6-27.604-58.395-58.395-116.79-116.793-175.187-175.186-40.94-40.935-81.89-81.86-122.834-122.793z"/></svg>