<svg xmlns="http://www.w3.org/2000/svg" width="357.214" height="655.348" viewBox="0 0 357.214 655.348"><path fill="#989898" d="M298.022 327.166c.048.05.073.12.19.318C198.95 426.72 99.642 525.997.006 625.604c9.19 9.192 18.382 18.382 27.57 27.575.595.595 1.043 1.34 1.678 2.167l327.96-327.865c-.117-.2-.142-.27-.19-.318-40.944-40.932-81.895-81.857-122.835-122.793C166.607 136.8 99.035 69.22 31.457 1.645c-2.172-2.172-1.73-2.19-3.857-.06C18.4 10.78 9.2 19.984 0 29.186 58.396 87.58 116.79 145.98 175.188 204.373c40.94 40.935 81.89 81.86 122.834 122.793z"/></svg>