<svg xmlns="http://www.w3.org/2000/svg" width="122.562" height="132.526" viewBox="0 0 122.562 132.526"><path fill="#253C81" d="M30.295 56.994L88.572.046 3.202 0H0v132.526h106.107z"/><path fill="#1A499D" d="M122.562 132.526V61.134l-.07 71.392z"/><path fill="#1A499D" d="M85.177.046L28.334 56.994l74.814 75.532h19.345l.07-71.392V.046z"/><path fill="#FFCB05" d="M27.634 21.75h17.302v20.598h9.48l22.44-20.978h26.46L70.49 49.612l35.623 28.913H79.828l-25.41-21.707h-9.482v21.707H27.634z"/><path fill="#FFF" d="M81.944 74.82c-1.312-.03-2.597-.146-3.88-.263-2.567-.233-5.165-.555-7.73-.904-2.393-.35-4.727-.876-7.09-1.4-3.24-.76-6.48-1.547-9.687-2.422-1.838-.494-3.647-.99-5.428-1.632-.877-.32-1.75-.7-2.628-1.05-.262-.09-.554-.176-.816-.264-1.46-.467-2.946-.963-4.376-1.517-.32-.117-.61-.263-.903-.41a45.517 45.517 0 0 1-.35-.26c-.117.174-.176.407-.205.582-.146.612-.146 1.254-.088 1.895.03.233.06.468.088.7.058.496.263.904.525 1.284l.146.232.117.847.175 1.283a1.36 1.36 0 0 1-.116.352c-.207.496-.47.992-.7 1.487a4.775 4.775 0 0 1-.38.64 4.085 4.085 0 0 1-.353.38 5.54 5.54 0 0 1-.438.32l-.29.117a1.955 1.955 0 0 1-.82.087c-.174 0-.29-.03-.437-.088a4.44 4.44 0 0 1-.38-.176l-.232-.204a3.002 3.002 0 0 1-.554-.875l-.09-.292c-.317-1.02-.35-2.07-.35-3.15.032-2.305.147-4.638.147-6.943 0-.088 0-.174-.028-.263-.205-.29-.584-.408-.876-.524-.556-.234-1.08-.525-1.605-.788-1.605-.875-3.18-1.81-4.785-2.713-1.253-.73-2.508-1.49-3.675-2.365-.263-.203-.495-.438-.788-.61L21.2 55.59c-.408-.087-.76-.29-1.08-.495-.612-.38-1.194-.788-1.662-1.342-.116-.205-.233-.38-.35-.613-.088-.263-.177-.525-.205-.816a3.854 3.854 0 0 1 0-.818c0-.174.06-.35.088-.524.06-.175.118-.32.206-.496.088-.175.204-.32.292-.467.146-.146.263-.263.407-.38.293-.262.584-.466.935-.67a5.29 5.29 0 0 1 .874-.35l.38-.088a3.974 3.974 0 0 1 1.313-.06l.35.06c.175.03.292.087.467.174l1.167.964c.936.672 1.898 1.343 2.83 2.014.294.205.644.32.964.41.41.057.817.027 1.226.027 1.546 0 3.092-.026 4.61-.173a6.82 6.82 0 0 0 1.31-.204c.118-.03.09-.03.147-.146.058-.292.058-.584.058-.876l.555-5.805c.028-1.255.088-2.48.233-3.705.028-.205.06-.41.117-.643.058-.264.116-.555.29-.788-.262-.294-.553-.615-.786-.936-.204-.263-.438-.524-.556-.846-.116-.468-.203-.936-.203-1.43-.03-.82.087-1.635.175-2.452.06-.466.146-.934.204-1.4.087-.904.204-1.81.292-2.713.146-1.196.292-2.393.495-3.56.12-.643.265-1.284.5-1.868.145-.32.32-.61.523-.903.146-.204.292-.35.496-.496l.262-.117c.205-.087.352-.087.556-.087.32.03.642.087.963.087.467.03.904.088 1.31.234.264.146.498.35.703.555.174.144.32.32.466.493.145.176.262.35.35.556.087.203.175.38.232.582l.09.438a4.28 4.28 0 0 1 0 .847 4.3 4.3 0 0 1-.41 1.168c-.115.32-.175.67-.232 1.02-.088.497-.175.964-.263 1.46-.232 1.604-.467 3.24-.7 4.872l-.116 1.46-.497 3.44-.816 7.616-.145.555-.263 2.77c0 .06 0 .293.06.35.144.09.35-.028.464-.057.205-.086.38-.174.584-.232.818-.204 1.663-.29 2.51-.38l1.517-.26 6.273-1.577 7.09-2.013 4.987-1.692c.935-.35 1.84-.73 2.773-1.108l2.597-1.167 2.48-1.284 2.333-1.313 2.16-1.4 1.05-.758c.905-.672 1.81-1.372 2.655-2.13l1.663-1.897c.468-.672.876-1.37 1.197-2.16l.495-1.72c.03-.263.06-.497.06-.76v-.408a8.51 8.51 0 0 0-.118-.846l-.174-.555-.233-.527-.322-.525-.38-.525a8.36 8.36 0 0 0-.727-.73 7.26 7.26 0 0 0-.874-.728 8.67 8.67 0 0 0-1.08-.7c-.41-.263-.818-.467-1.228-.7-.467-.204-.935-.438-1.43-.642a35.868 35.868 0 0 0-1.576-.584 17.665 17.665 0 0 0-1.633-.524 36.995 36.995 0 0 0-2.975-.76 69.08 69.08 0 0 0-3.238-.61 146.017 146.017 0 0 0-3.59-.41c-1.312-.116-2.596-.233-3.91-.292a273.284 273.284 0 0 0-4.93-.116c-3.705.028-7.44.086-11.145.495a42.76 42.76 0 0 0-3.385.495c-1.283.264-2.597.525-3.88.76-.32.058-.643.116-.963.116-.38.03-.76.06-1.11.204l-.086.03c-.06.174-.145.35-.203.523-.584.47-1.167.935-1.78 1.344-.583.292-1.196.408-1.81.525a3.897 3.897 0 0 0-.846.204c-1.106.32-2.187.67-3.295.992-1.108.553-2.188 1.08-3.27 1.663a14.31 14.31 0 0 0-1.428.874c-.79.583-1.605 1.196-2.51 1.604l-.35.145c-.204.058-.38.087-.612.087-.263-.06-.438-.146-.672-.262a10.64 10.64 0 0 1-1.08-.847c-.145-.145-.262-.262-.378-.437a4.528 4.528 0 0 1-.38-.643l-.117-.32c-.116-.408-.146-.788-.116-1.196a2.31 2.31 0 0 1 .175-.613c.116-.29.29-.524.495-.787.76-.904 1.78-1.574 2.8-2.158 2.978-1.692 6.216-2.714 9.483-3.618 1.254-.35 2.51-.643 3.764-.935a70.71 70.71 0 0 1 4.96-.963c.933-.176 1.866-.293 2.8-.438 2.917-.38 5.864-.613 8.81-.847 2.74-.204 5.456-.38 8.17-.35 1.662 0 3.325.058 4.96.174a79.99 79.99 0 0 1 4.61.496c3.56.466 7.116 1.165 10.59 2.187 1.72.525 3.412 1.138 5.02 1.926.494.29.99.553 1.486.875.555.378 1.05.757 1.547 1.165.467.41.902.875 1.342 1.343.233.292.466.584.7.904.38.408.728.846 1.02 1.312.205.32.38.64.525.99.174.467.32.905.437 1.4a8.18 8.18 0 0 1 .175 2.07 8.096 8.096 0 0 1-.32 1.665l-.087.292c-.468 1.312-1.168 2.51-1.985 3.646-.584.788-1.253 1.518-1.954 2.217l-2.043 1.75-1.838 1.314c-.67.466-1.37.874-2.042 1.31-.583.322-1.138.643-1.722.964A68.924 68.924 0 0 1 72.49 45l-1.4.67a130.65 130.65 0 0 1-11.175 4.377c-1.81.612-3.646 1.195-5.484 1.72-1.865.526-3.733.993-5.63 1.46-2.566.583-5.163 1.108-7.76 1.634-.555.118-1.11.235-1.692.293-.06.03-.146.03-.204.06l.028 1.925c-.027.32-.057.642-.114.963-.03.205-.09.468 0 .67.115.235.32.41.555.527.525.292 1.08.525 1.633.758a350.23 350.23 0 0 0 7.557 3.24c.32.174.642.29 1.022.378.087.03.175.06.263.088.875.293 1.72.67 2.597 1.02 1.167.44 2.333.818 3.53 1.168 4.055 1.167 8.227 2.014 12.37 2.8 1.02.177 2.042.38 3.06.526 1.373.176 2.774.32 4.174.468 2.187.204 4.376.38 6.564.525.176-.03.352-.088.525-.146.407-.146.787-.32 1.226-.467a7.074 7.074 0 0 1 1.37-.204l.934-.09.234.06.29.174c.322.234.643.497.876.817.35.44.643.877.73 1.4 0 .206-.03.41-.03.585a3.8 3.8 0 0 1-.263.76 2.75 2.75 0 0 1-.35.524c-.145.174-.32.35-.496.494a4.56 4.56 0 0 1-.816.263c-.67.204-1.37.35-2.042.525-.583-.087-1.196-.174-1.78-.145-.29.004-.552.004-.844.004zM35.147 59.525c0-.174.03-.32.03-.495-.467 0-.906.03-1.343.06.204.145.437.29.642.437l.642.292c0-.09.03-.207.03-.295zM22.108 104.356v1.588h3.843v.94h-3.84v2.42h-1.625v-5.888h5.675v.94h-4.05zm6.667-.94v5.89H27.15v-5.89h1.625zm1.52 5.89v-5.89h4.225c1.05 0 1.774.123 2.17.375.4.25.598.703.598 1.36 0 .597-.1 1.003-.298 1.22-.198.22-.605.37-1.22.455v.04c.948.038 1.424.42 1.424 1.142v1.3h-1.626v-1.075c0-.604-.436-.91-1.306-.91H31.92v1.985h-1.625zm1.625-2.927h2.336c.556 0 .926-.068 1.107-.205.183-.137.273-.412.273-.822 0-.42-.08-.693-.235-.814s-.5-.185-1.03-.185h-2.45v2.023zm8.117-2.024v1.52h4.017v.824h-4.017v1.666h4.274v.94h-5.9v-5.89h5.865v.94h-4.237zm14.33 2.11h1.394v.19l-.01.514c0 .248-.053.51-.157.79l1.23.716-.77.643-1.03-.598c-.38.424-1.26.635-2.637.635-1.53 0-2.535-.12-3.01-.363-.476-.242-.713-.754-.713-1.535 0-.884.545-1.38 1.633-1.49-.47-.282-.704-.636-.704-1.06 0-.546.194-.92.58-1.128.39-.207 1.09-.31 2.103-.31 1.062 0 1.786.104 2.175.317.386.21.58.606.58 1.19l-.007.307H53.58v-.172c0-.354-.07-.576-.21-.666-.14-.093-.482-.138-1.026-.138-.804 0-1.206.207-1.206.617 0 .28.21.54.628.784l2.605 1.537c.04-.15.06-.29.06-.42 0-.104-.02-.227-.06-.366zm-3.214.023c-.63.06-.947.385-.947.973 0 .455.107.744.32.867s.71.187 1.494.187c.674 0 1.11-.02 1.31-.062s.41-.158.636-.352l-2.813-1.614zm9.717 2.815v-5.89h4.227c1.05 0 1.773.124 2.172.376.394.25.594.703.594 1.36 0 .597-.1 1.003-.298 1.22s-.605.37-1.222.455v.04c.95.038 1.426.42 1.426 1.142v1.3h-1.625v-1.075c0-.604-.436-.91-1.306-.91h-2.344v1.985H60.87zm1.627-2.926h2.336c.557 0 .926-.068 1.107-.205.183-.137.273-.412.273-.822 0-.42-.08-.693-.236-.814-.156-.12-.502-.185-1.032-.185h-2.448v2.023zm8.117-2.024v1.52h4.017v.824h-4.015v1.666h4.274v.94h-5.9v-5.89h5.86v.94h-4.235zm11.846.777h-1.59a1.003 1.003 0 0 1-.012-.12c-.037-.33-.145-.54-.32-.624-.176-.088-.59-.13-1.242-.13-.77 0-1.274.05-1.51.145-.237.1-.355.307-.355.62 0 .368.1.593.29.667.193.074.83.133 1.91.172 1.275.05 2.1.174 2.476.377.375.2.562.62.562 1.255 0 .785-.22 1.29-.658 1.518-.44.23-1.41.344-2.908.344-1.348 0-2.242-.113-2.685-.338-.44-.226-.662-.68-.662-1.36l-.005-.22h1.582l.006.126c0 .412.104.662.314.756.208.09.78.137 1.713.137.728 0 1.193-.054 1.394-.16.2-.106.3-.353.3-.737 0-.285-.077-.475-.23-.568-.153-.092-.48-.15-.99-.17l-.895-.04c-1.357-.054-2.223-.183-2.6-.388-.376-.203-.564-.643-.564-1.316 0-.687.228-1.144.683-1.374.453-.227 1.36-.342 2.72-.342 1.29 0 2.158.105 2.605.314.446.21.67.62.67 1.23v.223zm6.628 2.073h1.633v.2c0 .82-.217 1.35-.65 1.59-.437.243-1.4.362-2.89.362-1.69 0-2.73-.19-3.12-.57-.39-.38-.582-1.395-.582-3.047 0-.97.264-1.61.79-1.916.527-.305 1.63-.46 3.31-.46 1.22 0 2.037.128 2.447.378.41.253.614.753.614 1.5l.006.134h-1.633v-.15c0-.385-.104-.63-.316-.74-.21-.107-.694-.16-1.445-.16-1.01 0-1.615.084-1.818.254s-.304.672-.304 1.51c0 1.13.09 1.795.273 2.002.182.207.772.31 1.767.31.81 0 1.333-.056 1.573-.17.24-.116.36-.37.36-.76l-.012-.264zm8.166-3.79h1.625v3.92c0 .817-.23 1.36-.69 1.626-.457.264-1.393.396-2.807.396-1.496 0-2.474-.125-2.938-.375-.465-.252-.697-.78-.697-1.584v-3.984h1.625v3.982c0 .433.113.708.338.825.228.115.76.174 1.597.174.856 0 1.395-.06 1.614-.177.22-.12.33-.408.33-.867v-3.94zm4.582.94v1.52h4.02v.824h-4.02v1.666h4.275v.94h-5.9v-5.89h5.865v.94h-4.238zM20.355 115.536h1.462l1.26 3.63h.29l1.055-3.63h1.727l1.08 3.63h.264l1.257-3.63h1.52l-1.81 4.857h-2.225l-.936-3.54-.938 3.54H22.14l-1.785-4.857zm9.917 0l1.756 4.857h2.224l.937-3.54.934 3.54h2.223l1.814-4.857h-1.52l-1.26 3.63h-.263l-1.082-3.63H34.31l-1.053 3.63h-.264l-1.258-3.63h-1.463zm9.89 0h1.46l1.26 3.63h.264l1.052-3.63h1.727l1.083 3.63h.264l1.287-3.63h1.49l-1.815 4.857h-2.222l-.937-3.54-.937 3.54h-2.225l-1.755-4.857zm9.8 3.57v1.287h1.52v-1.287h-1.52zm2.428-3.57h1.434v1.756h.79l1.843-1.785h2.193l-2.72 2.43 2.954 2.457H56.72l-2.107-1.844h-.79v1.844H52.39v-4.858zm6.845 0h2.516l2.46 3.63h.175l-.06-3.63h1.464v4.857H63.3l-2.485-3.627h-.146l.027 3.627h-1.463v-4.857zm7.402 0h5.178v1.143h-3.803v.7h3.6v1.08h-3.6v.763h3.833v1.17h-5.208v-4.858zm5.704 0h5.648v1.113l-3.452 2.572 3.54-.06v1.23h-5.82v-1.14l3.422-2.546-3.336.06v-1.23zm6.38 0h5.207v1.143h-3.773v.7h3.598v1.08h-3.597v.763h3.804v1.17h-5.24v-4.858zm5.88 0h1.434v1.756h.79l1.844-1.785h2.193l-2.72 2.43 2.955 2.457H88.9l-2.077-1.844h-.79v1.844H84.6v-4.858zm6.934 3.57h1.49v1.287h-1.49v-1.287zm6.873-.586h1.434v.498c0 .352-.056.613-.144.82-.117.232-.322.38-.645.467-.35.117-.964.146-1.813.146-.936 0-1.55 0-1.902-.027a3.266 3.266 0 0 1-.7-.146.802.802 0 0 1-.44-.234c-.145-.145-.234-.352-.29-.584-.03-.235-.06-.733-.06-1.464 0-.674 0-1.14.06-1.404.028-.35.173-.614.407-.76.147-.147.44-.233.792-.265.408-.06 1.082-.086 2.076-.086.615 0 1.023 0 1.29.027.378.06.642.12.817.234.232.147.352.353.41.616.057.176.057.41.057.645v.29H98.32v-.26c-.027-.12-.088-.236-.203-.264-.146-.06-.586-.088-1.316-.088-.5 0-.85.03-1.023.057-.236.03-.38.148-.44.38a5.77 5.77 0 0 0-.058.88c0 .408.03.703.056.848.06.205.205.322.47.38.175 0 .556.03 1.054.03.554 0 .905-.03 1.11-.03.205-.028.322-.087.38-.204.027-.118.056-.265.056-.5zm2.078-2.984h5.617v1.113l-3.423 2.572 3.54-.06v1.23h-5.82v-1.14l3.393-2.546-3.306.06v-1.23z"/><path fill="#FFCB05" d="M20.385 111.903h85.73v1.166h-85.73z"/><path fill="#FFF" d="M20.39 90.61h3.27v3.85h1.778l4.202-3.908h4.96l-6.156 5.28 6.68 5.427h-4.93l-4.756-4.086h-1.78v4.084H20.39V90.61zm15.172 0h5.66l5.602 7.936h.32l-.058-7.936h3.297v10.648h-5.66l-5.602-7.965h-.35l.09 7.965h-3.3V90.61h.003zm16.31 0H63.66v2.51h-8.61v1.516h8.168V97H55.05v1.69h8.666v2.567H51.872V90.61zm12.604 0h12.748v2.45l-7.79 5.632 8.024-.088v2.654H64.3V98.78l7.673-5.604-7.497.088V90.61zm14.032 0h11.816v2.51h-8.607v1.516h8.17V97h-8.17v1.69h8.666v2.567H78.508V90.61zm12.896 0h3.238v3.85h1.78l4.202-3.908h4.96l-6.16 5.28 6.682 5.427h-4.928l-4.758-4.086h-1.78v4.084h-3.237V90.61z"/></svg>