<svg xmlns="http://www.w3.org/2000/svg" width="225.245" height="227.279" viewBox="0 0 225.245 227.279"><path fill-rule="evenodd" clip-rule="evenodd" fill="#F5FAFB" d="M180.397 88.555c.11 20.713-5.43 38.2-16.617 53.83-1.92 2.682-1.784 4.157.597 6.51 18.72 18.497 37.265 37.17 55.89 55.76 3.147 3.142 6.668 6.423 4.082 11.203-2.864 5.29-6.73 10.098-13.13 11.31-3.643.692-6.147-1.993-8.53-4.378-18.49-18.496-37.05-36.92-55.4-55.55-2.967-3.014-4.837-3.326-8.604-.993-54.27 33.598-123.254 4.96-136.568-57.36C-10.644 49.162 36.378 1.345 87.486.03c44.448-1.144 85.65 30.856 92.333 78.518.53 3.778.45 7.64.577 10.007zM90.4 158.582c37.944.007 68.152-30.267 68.154-68.302.002-38.24-30.202-68.293-68.656-68.313-37.67-.02-67.954 30.318-67.933 68.057.02 38.422 30.096 68.55 68.436 68.558z"/></svg>